<svg id="visual" viewBox="0 0 960 540" width="960" height="540" xmlns="http://www.w3.org/2000/svg" xmlns:xlink="http://www.w3.org/1999/xlink" version="1.1"><rect x="0" y="0" width="960" height="540" fill="#ffffff"></rect><defs><linearGradient id="grad1_0" x1="43.8%" y1="0%" x2="100%" y2="100%"><stop offset="14.444444444444446%" stop-color="#ff0066" stop-opacity="1"></stop><stop offset="85.55555555555554%" stop-color="#ff0066" stop-opacity="1"></stop></linearGradient></defs><defs><linearGradient id="grad1_1" x1="43.8%" y1="0%" x2="100%" y2="100%"><stop offset="14.444444444444446%" stop-color="#ff0066" stop-opacity="1"></stop><stop offset="85.55555555555554%" stop-color="#ff7d96" stop-opacity="1"></stop></linearGradient></defs><defs><linearGradient id="grad1_2" x1="43.8%" y1="0%" x2="100%" y2="100%"><stop offset="14.444444444444446%" stop-color="#ffc0c9" stop-opacity="1"></stop><stop offset="85.55555555555554%" stop-color="#ff7d96" stop-opacity="1"></stop></linearGradient></defs><defs><linearGradient id="grad1_3" x1="43.8%" y1="0%" x2="100%" y2="100%"><stop offset="14.444444444444446%" stop-color="#ffc0c9" stop-opacity="1"></stop><stop offset="85.55555555555554%" stop-color="#ffffff" stop-opacity="1"></stop></linearGradient></defs><defs><linearGradient id="grad2_0" x1="0%" y1="0%" x2="56.3%" y2="100%"><stop offset="14.444444444444446%" stop-color="#ff0066" stop-opacity="1"></stop><stop offset="85.55555555555554%" stop-color="#ff0066" stop-opacity="1"></stop></linearGradient></defs><defs><linearGradient id="grad2_1" x1="0%" y1="0%" x2="56.3%" y2="100%"><stop offset="14.444444444444446%" stop-color="#ff7d96" stop-opacity="1"></stop><stop offset="85.55555555555554%" stop-color="#ff0066" stop-opacity="1"></stop></linearGradient></defs><defs><linearGradient id="grad2_2" x1="0%" y1="0%" x2="56.3%" y2="100%"><stop offset="14.444444444444446%" stop-color="#ff7d96" stop-opacity="1"></stop><stop offset="85.55555555555554%" stop-color="#ffc0c9" stop-opacity="1"></stop></linearGradient></defs><defs><linearGradient id="grad2_3" x1="0%" y1="0%" x2="56.3%" y2="100%"><stop offset="14.444444444444446%" stop-color="#ffffff" stop-opacity="1"></stop><stop offset="85.55555555555554%" stop-color="#ffc0c9" stop-opacity="1"></stop></linearGradient></defs><g transform="translate(960, 0)"><path d="M0 297C-33.7 280.1 -67.5 263.3 -104.1 251.3C-140.7 239.3 -180.3 232.2 -210 210C-239.7 187.8 -259.7 150.4 -272.5 112.9C-285.4 75.4 -291.2 37.7 -297 0L0 0Z" fill="#ffe0e4"></path><path d="M0 222.8C-25.3 210.1 -50.6 197.5 -78.1 188.5C-105.5 179.5 -135.2 174.2 -157.5 157.5C-179.8 140.8 -194.8 112.8 -204.4 84.7C-214.1 56.5 -218.4 28.3 -222.7 0L0 0Z" fill="#ffa0af"></path><path d="M0 148.5C-16.9 140.1 -33.7 131.6 -52 125.6C-70.4 119.7 -90.1 116.1 -105 105C-119.9 93.9 -129.8 75.2 -136.3 56.4C-142.7 37.7 -145.6 18.8 -148.5 0L0 0Z" fill="#ff547d"></path><path d="M0 74.3C-8.4 70 -16.9 65.8 -26 62.8C-35.2 59.8 -45.1 58.1 -52.5 52.5C-59.9 46.9 -64.9 37.6 -68.1 28.2C-71.4 18.8 -72.8 9.4 -74.2 0L0 0Z" fill="#ff0066"></path></g><g transform="translate(0, 540)"><path d="M0 -297C36.8 -286.9 73.5 -276.8 109.1 -263.3C144.6 -249.8 178.9 -232.9 207.9 -207.9C236.8 -182.9 260.4 -149.7 274.4 -113.7C288.3 -77.7 292.7 -38.8 297 0L0 0Z" fill="#ffe0e4"></path><path d="M0 -222.7C27.6 -215.2 55.1 -207.6 81.8 -197.5C108.5 -187.4 134.2 -174.7 155.9 -155.9C177.6 -137.1 195.3 -112.2 205.8 -85.2C216.3 -58.2 219.5 -29.1 222.8 0L0 0Z" fill="#ffa0af"></path><path d="M0 -148.5C18.4 -143.4 36.8 -138.4 54.5 -131.7C72.3 -124.9 89.5 -116.5 103.9 -103.9C118.4 -91.4 130.2 -74.8 137.2 -56.8C144.2 -38.8 146.3 -19.4 148.5 0L0 0Z" fill="#ff547d"></path><path d="M0 -74.2C9.2 -71.7 18.4 -69.2 27.3 -65.8C36.2 -62.5 44.7 -58.2 52 -52C59.2 -45.7 65.1 -37.4 68.6 -28.4C72.1 -19.4 73.2 -9.7 74.3 0L0 0Z" fill="#ff0066"></path></g></svg>