<svg id="visual" viewBox="0 0 960 540" width="960" height="540" xmlns="http://www.w3.org/2000/svg" xmlns:xlink="http://www.w3.org/1999/xlink" version="1.1"><rect x="0" y="0" width="960" height="540" fill="#140021"></rect><path d="M444 0L555 0L555 77L453 77L453 154L520 154L520 231L375 231L375 309L490 309L490 386L486 386L486 463L394 463L394 540L0 540L0 463L0 463L0 386L0 386L0 309L0 309L0 231L0 231L0 154L0 154L0 77L0 77L0 0L0 0Z" fill="#9900ff"></path><path d="M303 0L299 0L299 77L227 77L227 154L353 154L353 231L408 231L408 309L281 309L281 386L337 386L337 463L231 463L231 540L0 540L0 463L0 463L0 386L0 386L0 309L0 309L0 231L0 231L0 154L0 154L0 77L0 77L0 0L0 0Z" fill="#7700c6"></path><path d="M139 0L94 0L94 77L229 77L229 154L106 154L106 231L91 231L91 309L236 309L236 386L179 386L179 463L125 463L125 540L0 540L0 463L0 463L0 386L0 386L0 309L0 309L0 231L0 231L0 154L0 154L0 77L0 77L0 0L0 0Z" fill="#560090"></path></svg>