<svg width="556" height="159" viewBox="0 0 556 159" fill="none" xmlns="http://www.w3.org/2000/svg">
<rect y="4" width="148" height="147" rx="24" fill="#FF00D6"/>
<path d="M75.0625 90.1875V72.25C75.0625 69.7917 74.5833 67.4792 73.625 65.3125C72.7083 63.1042 71.4375 61.1875 69.8125 59.5625C68.1875 57.9375 66.2708 56.6667 64.0625 55.75C61.8958 54.7917 59.5833 54.3125 57.125 54.3125C54.6667 54.3125 52.3333 54.7917 50.125 55.75C47.9583 56.6667 46.0625 57.9375 44.4375 59.5625C42.8125 61.1875 41.5208 63.1042 40.5625 65.3125C39.6458 67.4792 39.1875 69.7917 39.1875 72.25V90.1875H75.0625ZM93 126H75.0625V108.062H39.1875V126H21.3125V72.25C21.3125 67.2917 22.25 62.6458 24.125 58.3125C26 53.9375 28.5417 50.125 31.75 46.875C35 43.625 38.7917 41.0625 43.125 39.1875C47.5 37.3125 52.1667 36.375 57.125 36.375C62.0833 36.375 66.7292 37.3125 71.0625 39.1875C75.4375 41.0625 79.25 43.625 82.5 46.875C85.75 50.125 88.3125 53.9375 90.1875 58.3125C92.0625 62.6458 93 67.2917 93 72.25V126ZM126.5 126H108.562V36.375H126.5V126Z" fill="white"/>
<path d="M246.955 30.9091V124H229.955L189.455 65.4091H188.773V124H169.091V30.9091H186.364L226.545 89.4545H227.364V30.9091H246.955ZM294.67 125.364C287.489 125.364 281.307 123.909 276.125 121C270.973 118.061 267.004 113.909 264.216 108.545C261.428 103.152 260.034 96.7727 260.034 89.4091C260.034 82.2273 261.428 75.9242 264.216 70.5C267.004 65.0758 270.928 60.8485 275.989 57.8182C281.08 54.7879 287.049 53.2727 293.898 53.2727C298.504 53.2727 302.792 54.0152 306.761 55.5C310.761 56.9545 314.246 59.1515 317.216 62.0909C320.216 65.0303 322.549 68.7273 324.216 73.1818C325.883 77.6061 326.716 82.7879 326.716 88.7273V94.0455H267.761V82.0455H308.489C308.489 79.2576 307.883 76.7879 306.67 74.6364C305.458 72.4848 303.777 70.803 301.625 69.5909C299.504 68.3485 297.034 67.7273 294.216 67.7273C291.277 67.7273 288.67 68.4091 286.398 69.7727C284.155 71.1061 282.398 72.9091 281.125 75.1818C279.852 77.4242 279.201 79.9242 279.17 82.6818V94.0909C279.17 97.5455 279.807 100.53 281.08 103.045C282.383 105.561 284.216 107.5 286.58 108.864C288.943 110.227 291.746 110.909 294.989 110.909C297.14 110.909 299.11 110.606 300.898 110C302.686 109.394 304.216 108.485 305.489 107.273C306.761 106.061 307.731 104.576 308.398 102.818L326.307 104C325.398 108.303 323.534 112.061 320.716 115.273C317.928 118.455 314.322 120.939 309.898 122.727C305.504 124.485 300.428 125.364 294.67 125.364ZM354.284 54.1818L367.102 78.5909L380.239 54.1818H400.102L379.875 89.0909L400.648 124H380.875L367.102 99.8636L353.557 124H333.557L354.284 89.0909L334.284 54.1818H354.284ZM456.375 94.2727V54.1818H475.739V124H457.148V111.318H456.42C454.845 115.409 452.223 118.697 448.557 121.182C444.92 123.667 440.481 124.909 435.239 124.909C430.572 124.909 426.466 123.848 422.92 121.727C419.375 119.606 416.602 116.591 414.602 112.682C412.633 108.773 411.633 104.091 411.602 98.6364V54.1818H430.966V95.1818C430.996 99.303 432.102 102.561 434.284 104.955C436.466 107.348 439.39 108.545 443.057 108.545C445.39 108.545 447.572 108.015 449.602 106.955C451.633 105.864 453.269 104.258 454.511 102.136C455.784 100.015 456.405 97.3939 456.375 94.2727ZM549.318 74.0909L531.591 75.1818C531.288 73.6667 530.636 72.303 529.636 71.0909C528.636 69.8485 527.318 68.8636 525.682 68.1364C524.076 67.3788 522.152 67 519.909 67C516.909 67 514.379 67.6364 512.318 68.9091C510.258 70.1515 509.227 71.8182 509.227 73.9091C509.227 75.5758 509.894 76.9848 511.227 78.1364C512.561 79.2879 514.848 80.2121 518.091 80.9091L530.727 83.4545C537.515 84.8485 542.576 87.0909 545.909 90.1818C549.242 93.2727 550.909 97.3333 550.909 102.364C550.909 106.939 549.561 110.955 546.864 114.409C544.197 117.864 540.53 120.561 535.864 122.5C531.227 124.409 525.879 125.364 519.818 125.364C510.576 125.364 503.212 123.439 497.727 119.591C492.273 115.712 489.076 110.439 488.136 103.773L507.182 102.773C507.758 105.591 509.152 107.742 511.364 109.227C513.576 110.682 516.409 111.409 519.864 111.409C523.258 111.409 525.985 110.758 528.045 109.455C530.136 108.121 531.197 106.409 531.227 104.318C531.197 102.561 530.455 101.121 529 100C527.545 98.8485 525.303 97.9697 522.273 97.3636L510.182 94.9545C503.364 93.5909 498.288 91.2273 494.955 87.8636C491.652 84.5 490 80.2121 490 75C490 70.5151 491.212 66.6515 493.636 63.4091C496.091 60.1667 499.53 57.6667 503.955 55.9091C508.409 54.1515 513.621 53.2727 519.591 53.2727C528.409 53.2727 535.348 55.1364 540.409 58.8636C545.5 62.5909 548.47 67.6667 549.318 74.0909Z" fill="white"/>
</svg>
